
<!DOCTYPE svg PUBLIC "-//W3C//DTD SVG 20010904//EN"
 "http://www.w3.org/TR/2001/REC-SVG-20010904/DTD/svg10.dtd">
<svg class="logo" version="1.0" xmlns="http://www.w3.org/2000/svg"
 width="3728.000000pt" height="670.000000pt" viewBox="0 0 3728.000000 670.000000"
 preserveAspectRatio="xMidYMid meet">

<g transform="translate(0.000000,670.000000) scale(0.100000,-0.100000)"
fill="#000000" stroke="none">
<path d="M29991 6233 c-45 -252 -84 -466 -87 -475 -5 -17 40 -18 816 -20 l821
-3 -586 -469 c-322 -258 -588 -472 -590 -477 -4 -6 87 -438 122 -576 l5 -23
332 0 c441 -1 538 -19 650 -121 68 -62 98 -127 104 -229 15 -258 -152 -469
-423 -537 -108 -26 -310 -24 -395 6 -115 40 -213 118 -258 208 -26 49 -52 139
-52 175 l0 28 -575 0 -575 0 0 -139 c0 -158 18 -276 60 -403 155 -464 569
-758 1200 -855 145 -22 510 -24 650 -4 768 110 1341 608 1487 1291 14 67 18
129 18 290 0 182 -3 214 -24 290 -94 347 -328 585 -709 720 l-104 37 549 503
c301 277 556 510 565 519 13 12 34 109 81 369 l63 352 -1531 0 -1532 0 -82
-457z"/>
<path d="M34100 6685 c0 -8 -419 -2378 -425 -2402 l-5 -22 777 -3 c703 -3 784
-5 838 -21 221 -64 326 -190 326 -389 0 -269 -172 -475 -459 -549 -89 -23
-264 -27 -352 -8 -183 38 -310 167 -341 347 l-11 62 -584 0 -584 0 0 -112 c0
-334 108 -614 319 -831 274 -282 663 -433 1171 -453 538 -22 1064 136 1405
423 364 306 558 711 582 1218 27 588 -273 1008 -828 1159 -186 51 -267 58
-676 63 -211 3 -383 8 -383 11 0 3 20 119 45 259 25 139 45 257 45 263 0 7
315 10 948 10 l947 0 83 478 c45 262 82 483 82 490 0 9 -299 12 -1460 12 -803
0 -1460 -2 -1460 -5z"/>
<path d="M10317 6660 c-336 -61 -588 -289 -667 -604 -43 -171 -22 -384 55
-540 214 -440 797 -592 1216 -317 238 157 375 431 356 714 -24 349 -264 639
-602 727 -90 24 -280 34 -358 20z"/>
<path d="M2765 4599 c-313 -33 -585 -152 -801 -351 l-44 -41 0 132 0 131 -945
0 -945 0 0 -570 0 -570 315 0 315 0 0 -1040 0 -1040 -315 0 -315 0 0 -570 0
-570 1255 0 1255 0 0 570 0 570 -310 0 -310 0 0 871 0 872 44 51 c67 78 184
191 251 241 87 66 240 140 331 160 61 14 106 17 213 12 164 -6 260 -29 386
-91 242 -120 384 -319 456 -643 22 -95 23 -120 26 -785 l4 -688 -273 -2 -273
-3 -3 -567 -2 -568 1215 0 1215 0 0 570 0 570 -309 0 -310 0 -4 773 c-3 670
-6 785 -20 871 l-17 98 54 67 c135 164 289 281 457 346 196 77 481 73 699 -10
232 -89 415 -300 490 -566 50 -177 53 -223 57 -921 l5 -658 -276 0 -276 0 0
-570 0 -570 1220 0 1220 0 0 570 0 570 -314 0 -315 0 -4 758 c-3 641 -6 773
-20 862 -85 540 -286 946 -623 1258 -128 119 -249 202 -409 282 -305 152 -581
209 -955 196 -205 -6 -339 -23 -504 -62 -320 -76 -627 -245 -925 -510 l-43
-39 -89 86 c-401 394 -949 579 -1534 518z"/>
<path d="M21170 4599 c-343 -40 -675 -178 -972 -405 l-48 -36 0 156 0 156
-945 0 -945 0 0 -570 0 -570 315 0 315 0 0 -1040 0 -1040 -315 0 -315 0 0
-570 0 -570 1255 0 1255 0 0 570 0 570 -310 0 -310 0 0 846 0 846 118 116
c138 138 256 224 407 298 154 75 232 95 393 101 153 6 244 -5 377 -48 117 -37
202 -87 293 -173 182 -172 270 -394 292 -736 5 -85 10 -401 10 -702 l0 -548
-270 0 -270 0 0 -570 0 -570 1215 0 1215 0 0 570 0 570 -314 0 -315 0 -4 763
c-4 824 -5 847 -63 1105 -208 933 -917 1500 -1863 1491 -69 -1 -160 -5 -201
-10z"/>
<path d="M26335 4549 c-206 -19 -431 -67 -626 -134 -126 -44 -353 -152 -469
-225 -560 -350 -920 -911 -1015 -1580 -22 -151 -25 -466 -6 -615 86 -685 435
-1256 996 -1630 226 -150 548 -282 828 -340 l129 -26 436 4 437 3 115 28 c268
65 555 186 763 322 343 224 610 526 788 889 162 333 231 642 232 1035 0 241
-19 406 -72 606 -226 857 -918 1474 -1831 1633 -220 39 -488 50 -705 30z m521
-1148 c537 -134 874 -599 850 -1171 -8 -201 -48 -355 -134 -524 -194 -380
-564 -606 -992 -606 -624 0 -1096 469 -1127 1121 -29 602 341 1085 913 1194
113 21 380 14 490 -14z"/>
<path d="M9210 3900 l0 -570 315 0 315 0 0 -1040 0 -1040 -315 0 -315 0 0
-570 0 -570 1255 0 1255 0 0 570 0 570 -310 0 -310 0 0 1610 0 1610 -945 0
-945 0 0 -570z"/>
<path d="M12380 3900 l0 -570 483 0 484 0 409 -521 c225 -286 408 -525 406
-530 -1 -5 -183 -239 -404 -519 l-402 -510 -488 0 -488 0 0 -570 0 -570 1110
0 1110 0 0 414 0 414 188 245 c103 135 192 246 197 246 6 0 92 -106 193 -236
l182 -237 0 -423 0 -423 1115 0 1115 0 0 570 0 570 -497 0 -498 0 -398 510
c-218 281 -398 514 -400 519 -1 5 182 244 407 530 l410 521 488 0 488 0 0 570
0 570 -1115 0 -1115 0 0 -419 0 -419 -191 -262 c-105 -144 -195 -258 -200
-253 -4 4 -89 118 -188 253 l-181 245 0 427 0 428 -1110 0 -1110 0 0 -570z"/>
</g>
</svg>
